<svg width="17" height="16" viewBox="0 0 17 16" fill="none" xmlns="http://www.w3.org/2000/svg">
<path d="M7.45327 12.2467C7.35327 12.2467 7.25994 12.22 7.17327 12.16C7.03327 12.0667 6.95327 11.9134 6.95327 11.7467C6.95327 11.6467 6.94661 11.54 6.93327 11.4334C6.87327 10.96 6.65994 10.5467 6.29994 10.1867C5.93994 9.8267 5.49327 9.60003 5.01327 9.54003C4.93327 9.53336 4.81994 9.5267 4.71327 9.53336C4.53994 9.5467 4.37994 9.47336 4.27994 9.33336C4.17994 9.20003 4.15327 9.02003 4.20661 8.86003C4.30661 8.5867 4.45327 8.34003 4.62661 8.14003L5.65327 6.8467C7.41994 4.64003 10.9999 1.9867 13.6199 0.933363C14.1733 0.720029 14.7666 0.846696 15.1733 1.2467C15.5933 1.6667 15.7199 2.2667 15.4999 2.81336C14.4466 5.44003 11.7999 9.01336 9.59327 10.78L8.27994 11.8334C8.03327 12.0134 7.83327 12.1267 7.63327 12.2067C7.57994 12.2334 7.51327 12.2467 7.45327 12.2467ZM5.52661 8.6267C6.08661 8.77336 6.58661 9.0667 7.00661 9.4867C7.42661 9.90003 7.70661 10.38 7.84661 10.9134L8.97327 10.0067C11.0666 8.33336 13.5799 4.94003 14.5733 2.4467C14.6733 2.20003 14.5333 2.0267 14.4666 1.9667C14.4199 1.92003 14.2466 1.77336 13.9799 1.87336C11.4999 2.87336 8.10661 5.3867 6.42661 7.48003L5.52661 8.6267Z" fill="white"/>
<path d="M3.21959 15.1667C2.71959 15.1667 2.23959 14.9667 1.87959 14.6067C1.46625 14.1933 1.26625 13.62 1.33292 13.0333L1.51292 11.3933C1.68625 9.76666 3.01959 8.56 4.67292 8.52666C4.79959 8.52 4.96625 8.52666 5.11959 8.54C5.84625 8.63333 6.49292 8.96 7.01292 9.48C7.52625 9.99333 7.83292 10.6067 7.92625 11.2933C7.94625 11.44 7.95959 11.6 7.95959 11.74C7.95959 12.62 7.61959 13.44 7.00625 14.06C6.49292 14.5667 5.83292 14.88 5.08625 14.9733L3.43959 15.1533C3.36625 15.16 3.29292 15.1667 3.21959 15.1667ZM4.79959 9.53333C4.77292 9.53333 4.73959 9.53333 4.71292 9.53333C3.70625 9.55333 2.63959 10.24 2.50625 11.5067L2.32625 13.1467C2.29292 13.4267 2.39292 13.7 2.58625 13.9C2.77959 14.0933 3.05292 14.1933 3.32625 14.16L4.96625 13.98C5.47959 13.9133 5.93959 13.7 6.28625 13.3533C6.71292 12.9267 6.95292 12.3533 6.95292 11.74C6.95292 11.64 6.94625 11.5333 6.93292 11.4267C6.87292 10.9533 6.65959 10.54 6.29959 10.18C5.93959 9.82 5.49292 9.59333 5.01292 9.53333C4.95959 9.53333 4.87959 9.53333 4.79959 9.53333Z" fill="white"/>
<path d="M9.99318 10.1467C9.71984 10.1467 9.49318 9.92001 9.49318 9.64668C9.49318 8.18001 8.29984 6.99335 6.83984 6.99335C6.56651 6.99335 6.33984 6.76668 6.33984 6.49335C6.33984 6.22001 6.55984 5.99335 6.83318 5.99335C8.84651 5.99335 10.4865 7.63335 10.4865 9.64668C10.4932 9.92668 10.2665 10.1467 9.99318 10.1467Z" fill="white"/>
</svg>
