<svg width="40" height="40" viewBox="0 0 40 40" fill="none" xmlns="http://www.w3.org/2000/svg">
<g clip-path="url(#clip0_14311_9402)">
<rect width="40" height="40" rx="20" fill="black"/>
<path d="M18.4905 14.2433C21.9684 16.8246 24.4431 19.2746 25.9145 21.5933C27.4305 23.8683 28.1885 26.3402 28.1885 29.0089C28.1885 32.0714 27.4305 35.0027 25.9145 37.8027C24.3985 40.6027 22.1468 42.7027 19.1593 44.1027C17.4204 44.8902 15.6368 45.4152 13.8087 45.6777C12.0251 45.9402 10.0186 46.0714 7.78919 46.0714C7.56625 46.0714 7.34332 45.5683 7.12037 44.5621C6.89743 43.5121 6.78595 42.0464 6.78595 40.1652C6.78595 37.1902 7.05349 35.1339 7.58856 33.9964C8.07904 32.8589 8.59179 32.2902 9.12686 32.2902C11.8914 32.2902 14.0762 32.0714 15.6814 31.6339C17.3312 31.1964 18.1561 30.6496 18.1561 29.9933C18.1561 29.1621 17.3089 27.8496 15.6145 26.0558C13.9201 24.2621 10.9773 21.9652 6.78595 19.1652L9.12686 7.35269L41.5652 -6.42856L43.5717 4.07144L18.4905 14.2433Z" fill="#242424"/>
<path d="M19.3669 17.0513C21.0889 18.3332 22.3143 19.5498 23.0428 20.7013C23.7935 21.8311 24.1688 23.0586 24.1688 24.3839C24.1688 25.9048 23.7935 27.3604 23.0428 28.7509C22.2922 30.1414 21.1773 31.1842 19.698 31.8795C18.837 32.2705 17.9539 32.5312 17.0487 32.6616C16.1656 32.792 15.1721 32.8571 14.0682 32.8571C13.9578 32.8571 13.8474 32.6073 13.737 32.1076C13.6266 31.5862 13.5714 30.8583 13.5714 29.9241C13.5714 28.4467 13.7039 27.4256 13.9688 26.8607C14.2117 26.2958 14.4656 26.0134 14.7305 26.0134C16.0993 26.0134 17.1812 25.9048 17.976 25.6875C18.7928 25.4702 19.2013 25.1987 19.2013 24.8728C19.2013 24.46 18.7818 23.8082 17.9428 22.9174C17.1039 22.0266 15.6467 20.886 13.5714 19.4955L14.7305 13.6295L30.7922 6.78571L31.7857 12L19.3669 17.0513Z" fill="#A72F3B"/>
</g>
<defs>
<clipPath id="clip0_14311_9402">
<rect width="40" height="40" rx="20" fill="white"/>
</clipPath>
</defs>
</svg>
