<svg width="16" height="16" viewBox="0 0 16 16" fill="none" xmlns="http://www.w3.org/2000/svg">
<path d="M7.66665 14.5C3.89998 14.5 0.833313 11.4333 0.833313 7.66668C0.833313 3.90001 3.89998 0.833344 7.66665 0.833344C11.4333 0.833344 14.5 3.90001 14.5 7.66668C14.5 11.4333 11.4333 14.5 7.66665 14.5ZM7.66665 1.83334C4.44665 1.83334 1.83331 4.45334 1.83331 7.66668C1.83331 10.88 4.44665 13.5 7.66665 13.5C10.8866 13.5 13.5 10.88 13.5 7.66668C13.5 4.45334 10.8866 1.83334 7.66665 1.83334Z" fill="#A72F3B"/>
<path d="M14.6666 15.167C14.54 15.167 14.4133 15.1203 14.3133 15.0203L12.98 13.687C12.7866 13.4936 12.7866 13.1736 12.98 12.9803C13.1733 12.787 13.4933 12.787 13.6866 12.9803L15.02 14.3136C15.2133 14.507 15.2133 14.827 15.02 15.0203C14.92 15.1203 14.7933 15.167 14.6666 15.167Z" fill="#A72F3B"/>
</svg>
